<svg xmlns="http://www.w3.org/2000/svg" viewBox="-60.0 -936.8 7780.1 2442.6" role="img" aria-label="Jak se máme, Střelice?"><title>Jak se máme, Střelice?</title><g transform="translate(-137.6 -652.0) scale(34.3906)"><path fill="#E4EEEC" fill-rule="evenodd" d="M18 4H46A14 14 0 0 1 60 18V36A14 14 0 0 1 46 50H29L13 61L18.5 50H18A14 14 0 0 1 4 36V18A14 14 0 0 1 18 4ZM17 30A2 2 0 0 0 15 32V40A2 2 0 0 0 17 42H21.5A2 2 0 0 0 23.5 40V32A2 2 0 0 0 21.5 30ZM29.75 23A2 2 0 0 0 27.75 25V40A2 2 0 0 0 29.75 42H34.25A2 2 0 0 0 36.25 40V25A2 2 0 0 0 34.25 23Z"/><path fill="#F4B547" d="M42.5 14A2 2 0 0 0 40.5 16V40A2 2 0 0 0 42.5 42H47A2 2 0 0 0 49 40V16A2 2 0 0 0 47 14Z"/></g><path fill="#E4EEEC" transform="translate(0 0)" d="M2265 162Q2252 162 2238 161Q2224 159 2209 157L2197 25Q2238 28 2255 15Q2272 1 2272 -40V-527H2427V-33Q2427 20 2415 57Q2403 94 2381 118Q2358 141 2329 152Q2300 162 2265 162ZM2349 -567Q2305 -567 2281 -586Q2258 -605 2258 -641Q2258 -677 2281 -696Q2305 -715 2349 -715Q2394 -715 2418 -696Q2441 -676 2441 -641Q2441 -606 2418 -587Q2394 -567 2349 -567ZM2605 14Q2565 14 2529 0Q2493 -14 2471 -46Q2448 -77 2448 -130Q2448 -178 2467 -209Q2485 -239 2517 -258Q2549 -276 2587 -286Q2625 -295 2663 -302Q2716 -312 2742 -318Q2768 -324 2777 -332Q2787 -340 2787 -354Q2787 -385 2764 -402Q2741 -418 2705 -418Q2682 -418 2660 -409Q2637 -401 2622 -380Q2608 -359 2608 -321L2470 -331Q2469 -393 2490 -434Q2511 -474 2547 -498Q2583 -521 2625 -531Q2668 -541 2711 -541Q2788 -541 2838 -512Q2888 -483 2913 -429Q2938 -374 2938 -296V-202Q2938 -168 2938 -134Q2938 -100 2938 -67Q2938 -33 2938 0H2803Q2804 -37 2804 -75Q2804 -112 2805 -154H2798Q2794 -108 2768 -70Q2743 -32 2701 -9Q2659 14 2605 14ZM2668 -100Q2686 -100 2707 -107Q2727 -114 2746 -130Q2764 -146 2775 -173Q2786 -201 2787 -240L2787 -264L2814 -268Q2805 -255 2786 -247Q2767 -239 2743 -234Q2719 -229 2695 -225Q2670 -220 2650 -212Q2629 -205 2616 -191Q2603 -178 2603 -155Q2603 -128 2622 -114Q2640 -100 2668 -100ZM2971 0V-698H3122V-326Q3157 -344 3183 -367Q3209 -390 3228 -417Q3246 -444 3257 -472Q3269 -500 3276 -527H3453Q3442 -488 3422 -450Q3401 -413 3371 -380Q3340 -348 3300 -322Q3260 -295 3212 -279V-271Q3274 -280 3314 -272Q3354 -265 3377 -244Q3400 -223 3413 -192Q3426 -161 3433 -124L3456 0H3289L3278 -87Q3273 -121 3265 -149Q3257 -177 3236 -195Q3214 -213 3169 -213L3122 -213V0ZM3919 14Q3867 14 3822 3Q3776 -7 3743 -30Q3710 -53 3693 -92Q3676 -130 3679 -185L3814 -196Q3815 -162 3829 -140Q3842 -117 3866 -107Q3890 -97 3924 -97Q3958 -97 3981 -108Q4005 -120 4005 -146Q4005 -160 3996 -170Q3987 -179 3965 -186Q3942 -194 3901 -204Q3851 -216 3810 -229Q3770 -242 3741 -259Q3712 -277 3697 -304Q3682 -330 3682 -369Q3682 -424 3711 -462Q3740 -500 3791 -520Q3843 -541 3910 -541Q3970 -541 4023 -522Q4075 -503 4106 -460Q4136 -417 4128 -347L3996 -334Q3999 -364 3987 -385Q3976 -407 3954 -417Q3932 -428 3901 -428Q3866 -428 3846 -415Q3826 -401 3826 -381Q3826 -364 3839 -353Q3851 -342 3876 -335Q3901 -327 3940 -318Q3975 -311 4011 -301Q4048 -290 4080 -272Q4112 -253 4132 -223Q4151 -194 4151 -148Q4151 -99 4125 -62Q4098 -26 4046 -6Q3994 14 3919 14ZM4419 14Q4345 14 4295 -7Q4245 -29 4214 -66Q4183 -103 4170 -151Q4156 -199 4156 -253Q4156 -310 4170 -362Q4185 -414 4215 -454Q4246 -494 4294 -517Q4342 -541 4409 -541Q4476 -541 4524 -518Q4572 -495 4601 -453Q4629 -412 4638 -358Q4647 -303 4637 -239L4252 -233V-319L4519 -324L4498 -274Q4503 -321 4495 -353Q4487 -385 4466 -402Q4445 -419 4409 -419Q4371 -419 4348 -399Q4325 -379 4315 -344Q4305 -309 4305 -260Q4305 -178 4334 -140Q4362 -102 4420 -102Q4446 -102 4463 -108Q4480 -115 4490 -127Q4501 -140 4505 -157Q4509 -174 4508 -195L4650 -187Q4653 -153 4643 -118Q4633 -83 4606 -53Q4580 -23 4534 -5Q4488 14 4419 14ZM4889 0V-287L4889 -527H5021L5019 -309H5027Q5034 -393 5055 -444Q5075 -495 5110 -518Q5145 -541 5193 -541Q5243 -541 5274 -516Q5305 -491 5320 -440Q5335 -389 5333 -309H5342Q5348 -392 5370 -443Q5392 -494 5428 -517Q5464 -541 5514 -541Q5555 -541 5585 -526Q5615 -511 5635 -481Q5656 -451 5666 -405Q5676 -360 5676 -299V0H5521V-285Q5521 -325 5514 -352Q5507 -378 5494 -391Q5480 -405 5459 -405Q5431 -405 5408 -380Q5385 -355 5371 -307Q5358 -258 5358 -185V0H5206V-289Q5206 -329 5200 -354Q5193 -379 5179 -392Q5164 -405 5143 -405Q5117 -405 5094 -383Q5072 -361 5058 -313Q5044 -264 5044 -185V0ZM5849 14Q5809 14 5773 0Q5737 -14 5715 -46Q5692 -77 5692 -130Q5692 -178 5711 -209Q5729 -239 5761 -258Q5793 -276 5831 -286Q5869 -295 5907 -302Q5960 -312 5986 -318Q6012 -324 6021 -332Q6031 -340 6031 -354Q6031 -385 6008 -402Q5985 -418 5949 -418Q5926 -418 5904 -409Q5881 -401 5866 -380Q5852 -359 5852 -321L5714 -331Q5713 -393 5734 -434Q5755 -474 5791 -498Q5827 -521 5869 -531Q5912 -541 5955 -541Q6032 -541 6082 -512Q6132 -483 6157 -429Q6182 -374 6182 -296V-202Q6182 -168 6182 -134Q6182 -100 6182 -67Q6182 -33 6182 0H6047Q6048 -37 6048 -75Q6048 -112 6049 -154H6042Q6038 -108 6012 -70Q5987 -32 5945 -9Q5903 14 5849 14ZM5912 -100Q5930 -100 5951 -107Q5971 -114 5990 -130Q6008 -146 6019 -173Q6030 -201 6031 -240L6031 -264L6058 -268Q6049 -255 6030 -247Q6011 -239 5987 -234Q5963 -229 5939 -225Q5914 -220 5894 -212Q5873 -205 5860 -191Q5847 -178 5847 -155Q5847 -128 5866 -114Q5884 -100 5912 -100ZM6215 0V-287L6215 -527H6347L6345 -309H6353Q6360 -393 6381 -444Q6401 -495 6436 -518Q6471 -541 6519 -541Q6569 -541 6600 -516Q6631 -491 6646 -440Q6661 -389 6659 -309H6668Q6674 -392 6696 -443Q6718 -494 6754 -517Q6790 -541 6840 -541Q6881 -541 6911 -526Q6941 -511 6961 -481Q6982 -451 6992 -405Q7002 -360 7002 -299V0H6847V-285Q6847 -325 6840 -352Q6833 -378 6820 -391Q6806 -405 6785 -405Q6757 -405 6734 -380Q6711 -355 6697 -307Q6684 -258 6684 -185V0H6532V-289Q6532 -329 6526 -354Q6519 -379 6505 -392Q6490 -405 6469 -405Q6443 -405 6420 -383Q6398 -361 6384 -313Q6370 -264 6370 -185V0ZM7285 14Q7211 14 7161 -7Q7111 -29 7080 -66Q7049 -103 7036 -151Q7022 -199 7022 -253Q7022 -310 7036 -362Q7051 -414 7081 -454Q7112 -494 7160 -517Q7208 -541 7275 -541Q7342 -541 7390 -518Q7438 -495 7467 -453Q7495 -412 7504 -358Q7513 -303 7503 -239L7118 -233V-319L7385 -324L7364 -274Q7369 -321 7361 -353Q7353 -385 7332 -402Q7311 -419 7275 -419Q7237 -419 7214 -399Q7191 -379 7181 -344Q7171 -309 7171 -260Q7171 -178 7200 -140Q7228 -102 7286 -102Q7312 -102 7329 -108Q7346 -115 7356 -127Q7367 -140 7371 -157Q7375 -174 7374 -195L7516 -187Q7519 -153 7509 -118Q7499 -83 7472 -53Q7446 -23 7400 -5Q7354 14 7285 14ZM7484 129Q7502 78 7510 37Q7517 -3 7519 -42Q7520 -81 7520 -125H7660Q7660 -61 7652 -15Q7643 32 7629 67Q7616 101 7601 129Z"/><g transform="translate(0 0)"><rect x="5838.8" y="-719.5" width="330.0" height="115.0" rx="57.5" transform="rotate(-30 5838.8 -662.0)" fill="#F4B547"/></g><path fill="#8FD0D4" transform="translate(0 1080)" d="M2524 14Q2455 14 2403 -2Q2351 -18 2316 -48Q2281 -77 2264 -120Q2248 -162 2250 -215L2394 -246Q2395 -198 2413 -169Q2431 -140 2462 -127Q2493 -113 2531 -113Q2563 -113 2588 -121Q2612 -129 2626 -143Q2640 -158 2640 -178Q2640 -203 2621 -219Q2603 -235 2570 -246Q2538 -258 2498 -269Q2455 -280 2412 -295Q2370 -309 2335 -331Q2300 -353 2278 -387Q2257 -422 2257 -474Q2257 -537 2289 -582Q2321 -627 2378 -650Q2435 -674 2509 -674Q2587 -674 2647 -648Q2707 -622 2740 -571Q2773 -520 2766 -447L2624 -424Q2625 -454 2618 -478Q2611 -501 2596 -517Q2580 -534 2558 -542Q2535 -551 2504 -551Q2472 -551 2450 -542Q2429 -534 2417 -519Q2406 -504 2406 -484Q2406 -462 2423 -447Q2440 -432 2471 -422Q2502 -411 2543 -400Q2586 -388 2630 -374Q2673 -360 2710 -336Q2747 -313 2769 -276Q2791 -240 2791 -183Q2791 -118 2757 -74Q2723 -30 2663 -8Q2603 14 2524 14ZM3018 12Q2927 12 2883 -35Q2838 -82 2838 -179V-406H2779V-504H2785Q2844 -512 2869 -544Q2894 -576 2899 -640L2900 -647H2991V-527H3114V-402H2991V-193Q2991 -155 3010 -139Q3028 -123 3056 -123Q3070 -123 3085 -127Q3101 -131 3114 -138V-2Q3084 6 3060 9Q3036 12 3018 12ZM3140 0V-283L3140 -527H3274L3273 -314H3281Q3287 -398 3305 -447Q3322 -497 3349 -518Q3376 -539 3410 -539Q3428 -539 3447 -534Q3466 -529 3485 -518L3477 -347Q3455 -359 3435 -365Q3414 -372 3396 -372Q3363 -372 3340 -352Q3318 -333 3306 -296Q3294 -259 3294 -205V0ZM3139 -730 3295 -676 3450 -730V-621L3295 -566L3139 -621ZM3734 14Q3660 14 3610 -7Q3560 -29 3529 -66Q3498 -103 3485 -151Q3471 -199 3471 -253Q3471 -310 3485 -362Q3500 -414 3530 -454Q3561 -494 3609 -517Q3657 -541 3724 -541Q3791 -541 3839 -518Q3887 -495 3916 -453Q3944 -412 3953 -358Q3962 -303 3952 -239L3567 -233V-319L3834 -324L3813 -274Q3818 -321 3810 -353Q3802 -385 3781 -402Q3760 -419 3724 -419Q3686 -419 3663 -399Q3640 -379 3630 -344Q3620 -309 3620 -260Q3620 -178 3649 -140Q3677 -102 3735 -102Q3761 -102 3778 -108Q3795 -115 3805 -127Q3816 -140 3820 -157Q3824 -174 3823 -195L3965 -187Q3968 -153 3958 -118Q3948 -83 3921 -53Q3895 -23 3849 -5Q3803 14 3734 14ZM3987 0V-698H4142V0ZM4181 0V-527H4336V0ZM4257 -567Q4213 -567 4190 -586Q4166 -605 4166 -641Q4166 -677 4190 -696Q4213 -715 4257 -715Q4303 -715 4326 -696Q4350 -676 4350 -641Q4350 -606 4326 -587Q4303 -567 4257 -567ZM4626 14Q4556 14 4505 -7Q4455 -29 4423 -66Q4391 -104 4376 -153Q4361 -202 4361 -258Q4361 -314 4376 -364Q4391 -415 4422 -455Q4454 -495 4504 -518Q4554 -541 4624 -541Q4706 -541 4757 -510Q4808 -479 4829 -429Q4850 -380 4841 -322L4707 -312Q4709 -348 4699 -372Q4688 -396 4669 -408Q4649 -420 4621 -420Q4597 -420 4577 -410Q4558 -401 4545 -382Q4531 -364 4524 -335Q4517 -306 4517 -265Q4517 -213 4529 -177Q4542 -140 4567 -121Q4591 -102 4628 -102Q4666 -102 4686 -120Q4706 -138 4713 -166Q4719 -194 4716 -222L4858 -215Q4864 -171 4853 -130Q4843 -88 4815 -56Q4786 -23 4739 -5Q4692 14 4626 14ZM5126 14Q5052 14 5002 -7Q4952 -29 4921 -66Q4890 -103 4877 -151Q4863 -199 4863 -253Q4863 -310 4877 -362Q4892 -414 4922 -454Q4953 -494 5001 -517Q5049 -541 5116 -541Q5183 -541 5231 -518Q5279 -495 5308 -453Q5336 -412 5345 -358Q5354 -303 5344 -239L4959 -233V-319L5226 -324L5205 -274Q5210 -321 5202 -353Q5194 -385 5173 -402Q5152 -419 5116 -419Q5078 -419 5055 -399Q5032 -379 5022 -344Q5012 -309 5012 -260Q5012 -178 5041 -140Q5069 -102 5127 -102Q5153 -102 5170 -108Q5187 -115 5197 -127Q5208 -140 5212 -157Q5216 -174 5215 -195L5357 -187Q5360 -153 5350 -118Q5340 -83 5313 -53Q5287 -23 5241 -5Q5195 14 5126 14Z"/><path fill="#8FA4A7" transform="translate(0 1080)" d="M5497 -204Q5491 -256 5500 -290Q5508 -325 5525 -348Q5542 -371 5563 -386Q5584 -402 5603 -415Q5622 -427 5634 -443Q5646 -458 5646 -480Q5646 -508 5627 -522Q5607 -536 5577 -536Q5555 -536 5529 -529Q5503 -522 5478 -510Q5453 -499 5431 -483L5424 -629Q5450 -645 5478 -655Q5505 -666 5535 -671Q5564 -676 5595 -676Q5631 -676 5667 -668Q5702 -659 5731 -640Q5761 -621 5778 -588Q5795 -554 5795 -503Q5795 -457 5782 -427Q5769 -396 5748 -376Q5726 -355 5704 -339Q5681 -323 5661 -305Q5641 -288 5630 -264Q5619 -240 5623 -204ZM5568 13Q5519 13 5495 -8Q5470 -30 5470 -74Q5470 -119 5495 -140Q5519 -161 5568 -161Q5618 -161 5643 -140Q5668 -119 5668 -74Q5668 13 5568 13Z"/></svg>
